<svg xmlns="http://www.w3.org/2000/svg" xmlns:xlink="http://www.w3.org/1999/xlink" viewBox="0 0 152.75 139.17"><defs><style>.cls-1{fill:url(#linear-gradient);}.cls-2{fill:url(#linear-gradient-2);}.cls-3{fill:#6da1f7;}.cls-4{fill:url(#linear-gradient-3);}.cls-5{fill:url(#linear-gradient-4);}.cls-6{fill:url(#linear-gradient-5);}.cls-7{fill:url(#linear-gradient-6);}.cls-8{fill:url(#linear-gradient-7);}.cls-9{fill:url(#linear-gradient-8);}.cls-10{fill:url(#linear-gradient-9);}.cls-11{fill:url(#linear-gradient-10);}.cls-12{fill:url(#linear-gradient-11);}.cls-13{fill:url(#linear-gradient-12);}.cls-14{fill:url(#linear-gradient-13);}.cls-15{fill:url(#linear-gradient-14);}.cls-16{fill:url(#linear-gradient-15);}.cls-17{fill:url(#linear-gradient-16);}.cls-18{fill:url(#linear-gradient-17);}.cls-19{fill:url(#linear-gradient-18);}.cls-20{fill:url(#linear-gradient-19);}.cls-21{fill:url(#linear-gradient-20);}.cls-22{fill:url(#linear-gradient-21);}.cls-23{fill:url(#linear-gradient-22);}.cls-24{fill:url(#linear-gradient-23);}.cls-25{fill:url(#linear-gradient-24);}.cls-26{fill:url(#linear-gradient-25);}.cls-27{fill:url(#linear-gradient-26);}.cls-28{fill:url(#linear-gradient-27);}.cls-29{fill:url(#linear-gradient-28);}.cls-30{fill:url(#linear-gradient-29);}.cls-31{fill:url(#linear-gradient-30);}.cls-32{fill:url(#linear-gradient-31);}.cls-33{fill:url(#linear-gradient-32);}.cls-34{fill:url(#linear-gradient-33);}</style><linearGradient id="linear-gradient" x1="7653.2" y1="80.36" x2="7818.67" y2="74.95" gradientTransform="translate(-7553.27)" gradientUnits="userSpaceOnUse"><stop offset="0" stop-color="#0c4ae3"/><stop offset="0.48" stop-color="#3b74ed"/><stop offset="1" stop-color="#6da1f7"/></linearGradient><linearGradient id="linear-gradient-2" x1="7681.85" y1="191.63" x2="7515.65" y2="-127.45" xlink:href="#linear-gradient"/><linearGradient id="linear-gradient-3" x1="98.29" y1="104.59" x2="77.56" y2="89.67" gradientUnits="userSpaceOnUse"><stop offset="0" stop-color="#fff"/><stop offset="1" stop-color="#d3ddf8"/></linearGradient><linearGradient id="linear-gradient-4" x1="58.33" y1="67.04" x2="87.53" y2="95.55" xlink:href="#linear-gradient-3"/><linearGradient id="linear-gradient-5" x1="6346.36" y1="104.59" x2="6325.63" y2="89.67" gradientTransform="matrix(1, 0, 0, -1, -6222.62, 177.74)" xlink:href="#linear-gradient-3"/><linearGradient id="linear-gradient-6" x1="6306.4" y1="80.69" x2="6335.6" y2="109.2" gradientTransform="matrix(1, 0, 0, -1, -6217.72, 191.97)" xlink:href="#linear-gradient-3"/><linearGradient id="linear-gradient-7" x1="112.82" y1="95.75" x2="90.37" y2="79.6" xlink:href="#linear-gradient-3"/><linearGradient id="linear-gradient-8" x1="76.32" y1="51.83" x2="89.85" y2="69.88" xlink:href="#linear-gradient-3"/><linearGradient id="linear-gradient-9" x1="79.3" y1="59.06" x2="104.97" y2="84.82" xlink:href="#linear-gradient-3"/><linearGradient id="linear-gradient-10" x1="80.06" y1="56.82" x2="89.65" y2="69.61" gradientUnits="userSpaceOnUse"><stop offset="0" stop-color="#491cd4"/><stop offset="1" stop-color="#020057"/></linearGradient><linearGradient id="linear-gradient-11" x1="76.51" y1="61.07" x2="109.75" y2="97.63" gradientUnits="userSpaceOnUse"><stop offset="0" stop-color="#90c5ff"/><stop offset="1" stop-color="#0c4ae3"/></linearGradient><linearGradient id="linear-gradient-12" x1="87.47" y1="61.07" x2="120.71" y2="97.63" xlink:href="#linear-gradient-11"/><linearGradient id="linear-gradient-13" x1="55.51" y1="64.5" x2="118.26" y2="125.77" xlink:href="#linear-gradient-3"/><linearGradient id="linear-gradient-14" x1="80.57" y1="83.95" x2="93.31" y2="96.96" xlink:href="#linear-gradient-11"/><linearGradient id="linear-gradient-15" x1="82.76" y1="81.56" x2="95.62" y2="94.69" xlink:href="#linear-gradient-11"/><linearGradient id="linear-gradient-16" x1="57.15" y1="35.46" x2="75.34" y2="77.72" gradientUnits="userSpaceOnUse"><stop offset="0" stop-color="#ffecb6"/><stop offset="1" stop-color="#ffa600"/></linearGradient><linearGradient id="linear-gradient-17" x1="40.62" y1="30.09" x2="59.21" y2="62.47" gradientUnits="userSpaceOnUse"><stop offset="0" stop-color="#d0e0fd"/><stop offset="1" stop-color="#5a92fb"/></linearGradient><linearGradient id="linear-gradient-18" x1="39.17" y1="30.92" x2="57.76" y2="63.3" xlink:href="#linear-gradient-17"/><linearGradient id="linear-gradient-19" x1="37.72" y1="31.75" x2="56.31" y2="64.14" xlink:href="#linear-gradient-17"/><linearGradient id="linear-gradient-20" x1="85.87" y1="69.06" x2="60.09" y2="57.68" xlink:href="#linear-gradient-16"/><linearGradient id="linear-gradient-21" x1="30.55" y1="87.37" x2="120.47" y2="171.27" gradientUnits="userSpaceOnUse"><stop offset="0" stop-color="#d0e0fd"/><stop offset="1" stop-color="#1968fb"/></linearGradient><linearGradient id="linear-gradient-22" x1="19.05" y1="37.97" x2="106.03" y2="136.01" xlink:href="#linear-gradient-21"/><linearGradient id="linear-gradient-23" x1="5.89" y1="49.65" x2="92.87" y2="147.68" xlink:href="#linear-gradient-21"/><linearGradient id="linear-gradient-24" x1="17.66" y1="39.2" x2="104.65" y2="137.24" xlink:href="#linear-gradient-21"/><linearGradient id="linear-gradient-25" x1="3.31" y1="51.93" x2="90.3" y2="149.97" xlink:href="#linear-gradient-21"/><linearGradient id="linear-gradient-26" x1="18.91" y1="38.09" x2="105.9" y2="136.13" xlink:href="#linear-gradient-21"/><linearGradient id="linear-gradient-27" x1="-2.56" y1="57.15" x2="84.42" y2="155.18" xlink:href="#linear-gradient-21"/><linearGradient id="linear-gradient-28" x1="-4.45" y1="58.82" x2="82.54" y2="156.85" xlink:href="#linear-gradient-21"/><linearGradient id="linear-gradient-29" x1="11.37" y1="44.78" x2="98.36" y2="142.82" xlink:href="#linear-gradient-21"/><linearGradient id="linear-gradient-30" x1="-15.9" y1="68.98" x2="71.09" y2="167.01" xlink:href="#linear-gradient-21"/><linearGradient id="linear-gradient-31" x1="134.54" y1="0.1" x2="82.94" y2="196.18" xlink:href="#linear-gradient-21"/><linearGradient id="linear-gradient-32" x1="102.56" y1="-8.31" x2="50.97" y2="187.77" xlink:href="#linear-gradient-21"/><linearGradient id="linear-gradient-33" x1="59.86" y1="-19.55" x2="8.26" y2="176.53" xlink:href="#linear-gradient-21"/></defs><g id="图层_2" data-name="图层 2"><g id="Layer_1" data-name="Layer 1"><path class="cls-1" d="M137.32,45.21q2.15,1.49,4.17,3.09c6,4.71,11.23,10.72,11.26,18.08s-3.93,12.55-9.25,16.55c-7.39,5.55-15.3,11.3-17.9,20.58-2.19,7.79-.09,16.82-5.38,23.39s-15.64,7.56-25,6c-12-2-23.77-7.52-33.86-15.05-9-6.76-17.4-15-23.29-24.44-4.51-7.19-7.51-15.23-7.79-23.13a36.36,36.36,0,0,1,8.21-24C60.11,19.45,106.75,23.88,137.32,45.21Z"/><path class="cls-2" d="M60.45,5.47c1.58-.79,3.18-1.54,4.8-2.23C72.4.19,80.35-1.59,87,2s9.34,9.66,10.33,16.38C98.66,27.7,100,37.59,107,44.46c5.92,5.76,15,8.29,18.35,16.24s-.86,17.72-6.8,25.31c-7.69,9.8-18.35,17.64-30,23-10.47,4.81-22,8.26-33.29,9-8.65.53-17.32-.7-24.55-4.31A37.13,37.13,0,0,1,13.15,94.57C-.36,62.13,26.38,22.47,60.45,5.47Z"/><path class="cls-3" d="M115.62,114.18a.6.6,0,1,1,.6-.6A.6.6,0,0,1,115.62,114.18Zm0-.83a.22.22,0,0,0-.22.23.22.22,0,0,0,.22.22.23.23,0,1,0,0-.45Z"/><path class="cls-3" d="M131,31.73a.6.6,0,1,1,.6-.6A.6.6,0,0,1,131,31.73Zm0-.83a.22.22,0,0,0-.22.23.22.22,0,0,0,.22.22.23.23,0,1,0,0-.45Z"/><path class="cls-3" d="M30.3,17.67a.6.6,0,0,1,0-1.2.6.6,0,1,1,0,1.2Zm0-.83a.23.23,0,1,0,0,.45.22.22,0,0,0,.22-.22A.22.22,0,0,0,30.3,16.84Z"/><path class="cls-3" d="M70,20.66a.6.6,0,0,1-.6-.6.6.6,0,0,1,1.2,0A.6.6,0,0,1,70,20.66Zm0-.82a.23.23,0,1,0,.22.22A.22.22,0,0,0,70,19.84Z"/><path class="cls-3" d="M33.5,46a.6.6,0,1,1,0-1.2.6.6,0,0,1,0,1.2Zm0-.83a.23.23,0,1,0,0,.45.22.22,0,0,0,.22-.22A.22.22,0,0,0,33.5,45.21Z"/><path class="cls-3" d="M139.64,65.26a.6.6,0,1,1,.6-.6A.6.6,0,0,1,139.64,65.26Zm0-.83a.23.23,0,1,0,0,.45.22.22,0,0,0,.22-.22A.22.22,0,0,0,139.64,64.43Z"/><path class="cls-3" d="M140.84,103.8a.6.6,0,0,1-.6-.6.6.6,0,0,1,1.2,0A.6.6,0,0,1,140.84,103.8Zm0-.82a.23.23,0,1,0,.22.22A.22.22,0,0,0,140.84,103Z"/><path class="cls-3" d="M107.15,7.84a.6.6,0,1,1,.6-.6A.6.6,0,0,1,107.15,7.84Zm0-.82a.22.22,0,0,0-.22.22.23.23,0,1,0,.22-.22Z"/><path class="cls-3" d="M22.48,86.48a.6.6,0,1,1,.6-.6A.6.6,0,0,1,22.48,86.48Zm0-.83a.23.23,0,0,0-.22.23.22.22,0,0,0,.22.22.23.23,0,0,0,.23-.22A.24.24,0,0,0,22.48,85.65Z"/><path class="cls-3" d="M.6,67.09a.6.6,0,0,1-.6-.6.6.6,0,0,1,1.2,0A.6.6,0,0,1,.6,67.09Zm0-.82a.22.22,0,0,0-.22.22.22.22,0,0,0,.22.23.23.23,0,1,0,0-.45Z"/><path class="cls-3" d="M111.59,73.93a.6.6,0,1,1,.6-.6A.6.6,0,0,1,111.59,73.93Zm0-.83a.23.23,0,0,0-.23.23.22.22,0,0,0,.23.22.22.22,0,0,0,.22-.22A.23.23,0,0,0,111.59,73.1Z"/><rect class="cls-4" x="73.99" y="87.04" width="4.91" height="3.67"/><rect class="cls-5" x="71.94" y="72.23" width="4.11" height="20.21" rx="1.95"/><rect class="cls-6" x="99.44" y="87.04" width="4.91" height="3.67" transform="translate(203.79 177.74) rotate(180)"/><rect class="cls-7" x="102.29" y="85.88" width="4.11" height="20.21" rx="1.95" transform="translate(208.69 191.97) rotate(180)"/><rect class="cls-8" x="87.12" y="75.91" width="4.11" height="5.65"/><ellipse class="cls-9" cx="89.17" cy="68.97" rx="13.13" ry="6.08"/><ellipse class="cls-10" cx="89.17" cy="68.97" rx="11.02" ry="10.22"/><path class="cls-11" d="M94.4,65.39H83.94A3.39,3.39,0,0,0,80.81,69h0a3.39,3.39,0,0,0,3.13,3.58H94.4A3.39,3.39,0,0,0,97.53,69h0A3.39,3.39,0,0,0,94.4,65.39Z"/><ellipse class="cls-12" cx="83.69" cy="68.97" rx="1.51" ry="1.57"/><path class="cls-13" d="M96.16,69a1.51,1.51,0,1,1-1.51-1.57A1.54,1.54,0,0,1,96.16,69Z"/><path class="cls-14" d="M89.17,80.7h0C82.5,80.7,77.08,84,77.08,88v18.81c0,4,5.42,7.26,12.09,7.26h0c6.68,0,12.09-3.25,12.09-7.26V88C101.26,84,95.85,80.7,89.17,80.7Z"/><path class="cls-15" d="M90.64,93.05a.54.54,0,0,1-.53.57.53.53,0,0,1-.53-.38l-.26-.69H87.13l-.26.7a.54.54,0,0,1-1.05-.19,1,1,0,0,1,.07-.32l1.58-4a.84.84,0,0,1,.78-.6.81.81,0,0,1,.77.6l1.55,4A1,1,0,0,1,90.64,93.05Zm-1.7-1.51-.7-1.87h0l-.7,1.87Z"/><path class="cls-16" d="M91.3,93V88.73a.59.59,0,1,1,1.17,0V93a.59.59,0,1,1-1.17,0Z"/><g id="Artwork_51" data-name="Artwork 51"><path class="cls-17" d="M74.08,45.4a12.48,12.48,0,1,0-22.21,7.8,17.93,17.93,0,0,1,4,11.21v0H67.34v0a17.74,17.74,0,0,1,4-11.17A12.39,12.39,0,0,0,74.08,45.4Z"/><path class="cls-18" d="M66.45,67.79H56.73a1.17,1.17,0,1,1,0-2.33h9.72a1.17,1.17,0,1,1,0,2.33Z"/><path class="cls-19" d="M66.45,71.15H56.73a1.17,1.17,0,1,1,0-2.34h9.72a1.17,1.17,0,0,1,0,2.34Z"/><rect class="cls-20" x="56.68" y="72.17" width="9.82" height="2.33" rx="1.05"/><path class="cls-21" d="M60.21,64.44h-.49c0-.06,0-6.17-.35-9.64a13.39,13.39,0,0,1-3.16-1.64,3.33,3.33,0,0,1-1.43-2.34,1.48,1.48,0,0,1,.7-1.21,1.66,1.66,0,0,1,1.25-.24A3.16,3.16,0,0,1,59,51.3a9.78,9.78,0,0,1,.75,2.91l0,.23.49.2.2.08a17.92,17.92,0,0,0,3.15,1.05,3.49,3.49,0,0,1,1.2-1.9,1.49,1.49,0,0,1,1.61-.09A1.1,1.1,0,0,1,67,54.91a1.69,1.69,0,0,1-1.09,1.29,3.37,3.37,0,0,1-1.6.16l-.31,0a14.11,14.11,0,0,0-.23,2.06c0,.38-.06.74-.09,1.07a40.66,40.66,0,0,0-.27,5h-.49a43.89,43.89,0,0,1,.27-5c0-.32.06-.67.09-1a15.73,15.73,0,0,1,.25-2.11,17.63,17.63,0,0,1-3.22-1.07l-.19-.08-.25-.1C60.24,58.53,60.21,64.37,60.21,64.44Zm3.93-8.59.23,0a2.88,2.88,0,0,0,1.37-.12,1.2,1.2,0,0,0,.79-.9.63.63,0,0,0-.31-.66,1,1,0,0,0-1.07.07A3,3,0,0,0,64.14,55.85Zm-7.76-6a1,1,0,0,0-.62.18,1,1,0,0,0-.5.82,2.89,2.89,0,0,0,1.25,1.94,11.44,11.44,0,0,0,2.79,1.47c-.25-1.87-.79-4-2.66-4.39A1.1,1.1,0,0,0,56.38,49.82Z"/></g><path class="cls-22" d="M93.67,110.62A12.76,12.76,0,0,0,81.77,98,12.82,12.82,0,0,0,68.9,86.41a13,13,0,0,0-4.76.89A13.08,13.08,0,0,0,43,86.75,13,13,0,0,0,27.12,98.23a12.62,12.62,0,0,0,2.52,25h8.83a13,13,0,0,0,16,10.81,12.82,12.82,0,0,0,2.09,2.14,13,13,0,0,0,8.26,3,12.53,12.53,0,0,0,9.2-4,13,13,0,0,0,6.14,1.55,12.5,12.5,0,0,0,9.74-4.58,12.64,12.64,0,0,0,1.26-14A12.49,12.49,0,0,0,93.67,110.62Z"/><path class="cls-23" d="M72,102.35a5.26,5.26,0,0,0-5.06,0,.84.84,0,1,0,.8,1.48,3.58,3.58,0,0,1,4,.34,3.36,3.36,0,0,1,1.12,3.67.85.85,0,0,0,.54,1.06.75.75,0,0,0,.26,0,.83.83,0,0,0,.79-.58,5,5,0,0,0-1.08-5l0,0A11.06,11.06,0,0,1,81.86,98h-.09a12.46,12.46,0,0,0-.25-1.64A12.75,12.75,0,0,0,72,102.35Z"/><path class="cls-24" d="M50.6,96.86a7.84,7.84,0,0,0-6.46,4.82.86.86,0,0,0,.47,1.1.84.84,0,0,0,1.09-.46,6.27,6.27,0,0,1,11.55,0,.86.86,0,0,0,.78.52.91.91,0,0,0,.32-.06.85.85,0,0,0,.46-1.1,7.83,7.83,0,0,0-6.53-4.83,12.47,12.47,0,0,0-8.1-11.49A13,13,0,0,0,43,86.73,10.79,10.79,0,0,1,50.6,96.86Z"/><path class="cls-25" d="M59.24,89.55a.85.85,0,0,0,.21,1.17.87.87,0,0,0,.48.15.82.82,0,0,0,.69-.37,11.09,11.09,0,0,1,3.5-3.23,13.55,13.55,0,0,0-1-1.33A12.67,12.67,0,0,0,59.24,89.55Z"/><path class="cls-26" d="M73.91,126.47a8.79,8.79,0,0,0-9.54-2.42.84.84,0,0,0,.58,1.58,7.2,7.2,0,0,1,9,9.58,13.12,13.12,0,0,0,1.53.7A8.79,8.79,0,0,0,73.91,126.47Z"/><path class="cls-27" d="M84.66,114.16a.84.84,0,0,0-.66,1,.83.83,0,0,0,1,.67,6.18,6.18,0,0,1,6.14,2.35,11.69,11.69,0,0,0,1-1.48A7.87,7.87,0,0,0,84.66,114.16Z"/><path class="cls-28" d="M31.44,98.59a5,5,0,0,0,1.35,4.35A.84.84,0,1,0,34,101.77,3.34,3.34,0,0,1,33.37,98a3.52,3.52,0,0,1,3.41-2,.84.84,0,1,0,.1-1.68A5.2,5.2,0,0,0,32,97a12,12,0,0,0-4.63-.51,12.28,12.28,0,0,0-.24,1.72A10.54,10.54,0,0,1,31.44,98.59Z"/><path class="cls-29" d="M44.43,115.45c3.44-1.52,7.37-1.15,9.84.92A8.42,8.42,0,0,0,53,120.44a.84.84,0,0,0,.79.88h0a.84.84,0,0,0,.84-.79,6.6,6.6,0,0,1,4.67-6,.84.84,0,1,0-.5-1.6,8.3,8.3,0,0,0-3.5,2.12c-3-2.49-7.5-2.94-11.56-1.14s-6.76,5.45-6.92,9.34h1.64l0,.2C38.57,120.16,40.9,117,44.43,115.45Z"/><path class="cls-30" d="M86.47,127.54a.84.84,0,0,0-1.66.28,7.81,7.81,0,0,0,3.93,5.55,11.41,11.41,0,0,0,1.11-1.19l.08-.09A6.14,6.14,0,0,1,86.47,127.54Z"/><path class="cls-31" d="M30.19,118.34a9.89,9.89,0,0,0-4-4.25.84.84,0,1,0-.83,1.46,8.13,8.13,0,0,1,4.12,7.7h1.69A9.93,9.93,0,0,0,30.19,118.34Z"/><path class="cls-32" d="M99,123.78a4,4,0,0,1-.26-.71,4.57,4.57,0,0,1-.12-.74L98,122a.59.59,0,0,1-.28-.67l.23-.86a.6.6,0,0,1,.58-.44l.76,0a3.69,3.69,0,0,1,1.06-1.06v-.75a.59.59,0,0,1,.44-.58l.86-.22a.57.57,0,0,1,.66.28l.37.66a3.72,3.72,0,0,1,1.44.39l.66-.38a.61.61,0,0,1,.72.1l.62.63a.59.59,0,0,1,.09.72l-.39.65a3.85,3.85,0,0,1,.38,1.44l.66.38a.6.6,0,0,1,.28.67l-.24.86a.58.58,0,0,1-.58.43h-.75a3.92,3.92,0,0,1-1.06,1V126a.59.59,0,0,1-.44.57l-.86.23a.6.6,0,0,1-.67-.28l-.37-.66a4,4,0,0,1-1.44-.4l-.65.38a.59.59,0,0,1-.72-.09l-.63-.63a.61.61,0,0,1-.09-.72Zm3.8-.13a1.59,1.59,0,1,0-2-1.14A1.6,1.6,0,0,0,102.83,123.65Z"/><path class="cls-33" d="M83.82,45.41a4.79,4.79,0,0,1,.06-.92,5.07,5.07,0,0,1,.25-.89l-.55-.76a.72.72,0,0,1,0-.88l.7-.85a.74.74,0,0,1,.87-.19l.84.4a4.75,4.75,0,0,1,1.73-.64l.38-.85a.73.73,0,0,1,.78-.42L90,39.6a.72.72,0,0,1,.6.65l.08.93a4.61,4.61,0,0,1,1.41,1.18l.93-.1a.72.72,0,0,1,.75.47l.38,1a.71.71,0,0,1-.27.85l-.76.53a4.12,4.12,0,0,1-.07.92,4.32,4.32,0,0,1-.24.89l.54.75a.72.72,0,0,1,0,.89l-.7.85a.74.74,0,0,1-.87.19l-.84-.4a4.7,4.7,0,0,1-1.72.64l-.38.85a.73.73,0,0,1-.79.41L86.93,51a.74.74,0,0,1-.6-.66l-.07-.92a4.61,4.61,0,0,1-1.41-1.18l-.93.1a.74.74,0,0,1-.76-.47l-.38-1a.74.74,0,0,1,.27-.85Zm4.31,1.79a2,2,0,1,0-1.6-2.26A2,2,0,0,0,88.13,47.2Z"/><path class="cls-34" d="M31.49,73.71a7.63,7.63,0,0,0,1.24.94,7.23,7.23,0,0,0,1.4.68l.36,1.53a1.21,1.21,0,0,0,1.16,1l1.85,0A1.21,1.21,0,0,0,38.7,77l.44-1.52A7.92,7.92,0,0,0,41.86,74l1.5.46a1.23,1.23,0,0,0,1.4-.53l1-1.58a1.24,1.24,0,0,0-.16-1.49l-1.1-1.13a7.72,7.72,0,0,0,.08-3.1l1.16-1.07A1.25,1.25,0,0,0,46,64.07l-.89-1.62a1.23,1.23,0,0,0-1.37-.61l-1.52.38a9,9,0,0,0-1.24-.94,7.8,7.8,0,0,0-1.4-.67l-.36-1.54A1.21,1.21,0,0,0,38,58.13l-1.85-.05A1.21,1.21,0,0,0,35,59l-.44,1.52A7.92,7.92,0,0,0,31.8,62l-1.5-.46a1.23,1.23,0,0,0-1.4.53l-1,1.58a1.24,1.24,0,0,0,.16,1.49l1.1,1.13a7.67,7.67,0,0,0-.08,3.09L28,70.39a1.25,1.25,0,0,0-.24,1.48l.89,1.62A1.23,1.23,0,0,0,30,74.1ZM34,66.24a3.31,3.31,0,1,1,1.09,4.54A3.31,3.31,0,0,1,34,66.24Z"/></g></g></svg>